SplineFontDB: 3.2
FontName: SwastixTube-Bold
FullName: Swastix Tube Bold
FamilyName: Swastix Tube
Weight: Bold
Copyright: Shankar Sivarajan
UComments: "2023-6-18: Created with FontForge (http://fontforge.org)"
Version: 
ItalicAngle: 0
UnderlinePosition: -70
UnderlineWidth: 35
Ascent: 600
Descent: 100
InvalidEm: 0
LayerCount: 2
Layer: 0 0 "Back" 1
Layer: 1 0 "Fore" 0
XUID: [1021 146 -1796264217 10339]
FSType: 0
OS2Version: 0
OS2_WeightWidthSlopeOnly: 0
OS2_UseTypoMetrics: 1
CreationTime: 1687110331
ModificationTime: 1695058652
PfmFamily: 17
TTFWeight: 400
TTFWidth: 5
LineGap: 63
VLineGap: 0
OS2TypoAscent: 0
OS2TypoAOffset: 1
OS2TypoDescent: 0
OS2TypoDOffset: 1
OS2TypoLinegap: 63
OS2WinAscent: 0
OS2WinAOffset: 1
OS2WinDescent: 0
OS2WinDOffset: 1
HheadAscent: 0
HheadAOffset: 1
HheadDescent: 0
HheadDOffset: 1
OS2Vendor: 'PfEd'
Lookup: 1 0 0 "NoCaps" { "NoCaps subtable"  } ['liga' ('latn' <'dflt' > 'DFLT' <'dflt' > ) ]
Lookup: 260 0 0 "'mark' Mark Positioning lookup 1" { "'mark' Mark Positioning lookup 1-1"  } ['mark' ('DFLT' <'dflt' > 'latn' <'dflt' > ) ]
MarkAttachClasses: 1
DEI: 91125
LangName: 1033
Encoding: win
Compacted: 1
UnicodeInterp: none
NameList: AGL For New Fonts
DisplaySize: -48
AntiAlias: 1
FitToEm: 0
WinInfo: 0 39 14
BeginPrivate: 0
EndPrivate
TeXData: 1 0 0 419430 209715 139810 0 1048576 139810 783286 444596 497025 792723 393216 433062 380633 303038 157286 324010 404750 52429 2506097 1059062 262144
AnchorClass2: "grid_center" "'mark' Mark Positioning lookup 1-1" "grid_center""" 
BeginChars: 257 55

StartChar: A
Encoding: 65 65 2
Width: 600
Flags: HW
HStem: 400 100<50 350>
AnchorPoint: "grid_center" 300 250 mark 0
LayerCount: 2
Fore
SplineSet
100 413 m 2
 90 413 80 416 73 423 c 0
 58 438 58 462 73 477 c 0
 80 484 90 487 100 487 c 2
 300 487 l 2
 310 487 320 484 327 477 c 0
 342 462 342 438 327 423 c 0
 320 416 310 413 300 413 c 2
 100 413 l 2
EndSplineSet
Validated: 33
Substitution2: "NoCaps subtable" a
EndChar

StartChar: B
Encoding: 66 66 3
Width: 600
Flags: HW
HStem: 400 100<50 350>
AnchorPoint: "grid_center" 300 250 mark 0
LayerCount: 2
Fore
SplineSet
300 413 m 2
 290 413 280 416 273 423 c 0
 258 438 258 462 273 477 c 0
 280 484 290 487 300 487 c 2
 500 487 l 2
 510 487 520 484 527 477 c 0
 542 462 542 438 527 423 c 0
 520 416 510 413 500 413 c 2
 300 413 l 2
EndSplineSet
Validated: 33
Substitution2: "NoCaps subtable" b
EndChar

StartChar: C
Encoding: 67 67 4
Width: 600
Flags: HW
VStem: 50 100<200 500>
AnchorPoint: "grid_center" 300 250 mark 0
LayerCount: 2
Fore
SplineSet
63 450 m 2
 63 460 66 470 73 477 c 0
 88 492 112 492 127 477 c 0
 134 470 137 460 137 450 c 2
 137 250 l 2
 137 240 134 230 127 223 c 0
 112 208 88 208 73 223 c 0
 66 230 63 240 63 250 c 2
 63 450 l 2
EndSplineSet
Validated: 33
Substitution2: "NoCaps subtable" c
EndChar

StartChar: D
Encoding: 68 68 5
Width: 600
Flags: HW
VStem: 250 100<200 500>
AnchorPoint: "grid_center" 300 250 mark 0
LayerCount: 2
Fore
SplineSet
263 450 m 2
 263 460 266 470 273 477 c 0
 288 492 312 492 327 477 c 0
 334 470 337 460 337 450 c 2
 337 250 l 2
 337 240 334 230 327 223 c 0
 312 208 288 208 273 223 c 0
 266 230 263 240 263 250 c 2
 263 450 l 2
EndSplineSet
Validated: 33
Substitution2: "NoCaps subtable" d
EndChar

StartChar: E
Encoding: 69 69 6
Width: 600
Flags: HW
VStem: 450 100<200 500>
AnchorPoint: "grid_center" 300 250 mark 0
LayerCount: 2
Fore
SplineSet
463 450 m 2
 463 460 466 470 473 477 c 0
 488 492 512 492 527 477 c 0
 534 470 537 460 537 450 c 2
 537 250 l 2
 537 240 534 230 527 223 c 0
 512 208 488 208 473 223 c 0
 466 230 463 240 463 250 c 2
 463 450 l 2
EndSplineSet
Validated: 33
Substitution2: "NoCaps subtable" e
EndChar

StartChar: F
Encoding: 70 70 7
Width: 600
Flags: HW
HStem: 400 100<50 350>
AnchorPoint: "grid_center" 300 250 mark 0
LayerCount: 2
Fore
SplineSet
100 213 m 2
 90 213 80 216 73 223 c 0
 58 238 58 262 73 277 c 0
 80 284 90 287 100 287 c 2
 300 287 l 2
 310 287 320 284 327 277 c 0
 342 262 342 238 327 223 c 0
 320 216 310 213 300 213 c 2
 100 213 l 2
EndSplineSet
Validated: 33
Substitution2: "NoCaps subtable" f
EndChar

StartChar: G
Encoding: 71 71 8
Width: 600
Flags: HW
HStem: 400 100<50 350>
AnchorPoint: "grid_center" 300 250 mark 0
LayerCount: 2
Fore
SplineSet
300 213 m 2
 290 213 280 216 273 223 c 0
 258 238 258 262 273 277 c 0
 280 284 290 287 300 287 c 2
 500 287 l 2
 510 287 520 284 527 277 c 0
 542 262 542 238 527 223 c 0
 520 216 510 213 500 213 c 2
 300 213 l 2
EndSplineSet
Validated: 33
Substitution2: "NoCaps subtable" g
EndChar

StartChar: H
Encoding: 72 72 9
Width: 600
Flags: HW
HStem: 0 21G<50 150>
VStem: 50 100<0 300>
AnchorPoint: "grid_center" 300 250 mark 0
LayerCount: 2
Fore
SplineSet
63 250 m 2
 63 260 66 270 73 277 c 0
 88 292 112 292 127 277 c 0
 134 270 137 260 137 250 c 2
 137 50 l 2
 137 40 134 30 127 23 c 0
 112 8 88 8 73 23 c 0
 66 30 63 40 63 50 c 2
 63 250 l 2
EndSplineSet
Validated: 33
Substitution2: "NoCaps subtable" h
EndChar

StartChar: I
Encoding: 73 73 10
Width: 600
Flags: HW
HStem: 0 21G<250 350>
VStem: 250 100<0 300>
AnchorPoint: "grid_center" 300 250 mark 0
LayerCount: 2
Fore
SplineSet
263 250 m 2
 263 260 266 270 273 277 c 0
 288 292 312 292 327 277 c 0
 334 270 337 260 337 250 c 2
 337 50 l 2
 337 40 334 30 327 23 c 0
 312 8 288 8 273 23 c 0
 266 30 263 40 263 50 c 2
 263 250 l 2
EndSplineSet
Validated: 33
Substitution2: "NoCaps subtable" i
EndChar

StartChar: J
Encoding: 74 74 11
Width: 600
Flags: HW
HStem: 0 21G<450 550>
VStem: 450 100<0 300>
AnchorPoint: "grid_center" 300 250 mark 0
LayerCount: 2
Fore
SplineSet
463 250 m 2
 463 260 466 270 473 277 c 0
 488 292 512 292 527 277 c 0
 534 270 537 260 537 250 c 2
 537 50 l 2
 537 40 534 30 527 23 c 0
 512 8 488 8 473 23 c 0
 466 30 463 40 463 50 c 2
 463 250 l 2
EndSplineSet
Validated: 33
Substitution2: "NoCaps subtable" j
EndChar

StartChar: K
Encoding: 75 75 12
Width: 600
Flags: HW
HStem: 400 100<50 350>
AnchorPoint: "grid_center" 300 250 mark 0
LayerCount: 2
Fore
SplineSet
100 13 m 2
 90 13 80 16 73 23 c 0
 58 38 58 62 73 77 c 0
 80 84 90 87 100 87 c 2
 300 87 l 2
 310 87 320 84 327 77 c 0
 342 62 342 38 327 23 c 0
 320 16 310 13 300 13 c 2
 100 13 l 2
EndSplineSet
Validated: 33
Substitution2: "NoCaps subtable" k
EndChar

StartChar: L
Encoding: 76 76 13
Width: 600
Flags: HW
HStem: 400 100<50 350>
AnchorPoint: "grid_center" 300 250 mark 0
LayerCount: 2
Fore
SplineSet
300 13 m 2
 290 13 280 16 273 23 c 0
 258 38 258 62 273 77 c 0
 280 84 290 87 300 87 c 2
 500 87 l 2
 510 87 520 84 527 77 c 0
 542 62 542 38 527 23 c 0
 520 16 510 13 500 13 c 2
 300 13 l 2
EndSplineSet
Validated: 33
Substitution2: "NoCaps subtable" l
EndChar

StartChar: one
Encoding: 49 49 14
Width: 600
Flags: HW
AnchorPoint: "grid_center" 300 250 mark 0
LayerCount: 2
Fore
SplineSet
340 450 m 0
 340 443 339 431 329 421 c 0
 319 411 307 410 300 410 c 0
 293 410 281 411 271 421 c 0
 261 431 260 443 260 450 c 0
 260 457 261 469 271 479 c 0
 281 489 293 490 300 490 c 0
 307 490 319 489 329 479 c 0
 339 469 340 457 340 450 c 0
EndSplineSet
Validated: 1
EndChar

StartChar: two
Encoding: 50 50 15
Width: 600
Flags: HW
AnchorPoint: "grid_center" 300 250 mark 0
LayerCount: 2
Fore
SplineSet
540 450 m 0
 540 443 539 431 529 421 c 0
 519 411 507 410 500 410 c 0
 493 410 481 411 471 421 c 0
 461 431 460 443 460 450 c 0
 460 457 461 469 471 479 c 0
 481 489 493 490 500 490 c 0
 507 490 519 489 529 479 c 0
 539 469 540 457 540 450 c 0
EndSplineSet
Validated: 1
EndChar

StartChar: three
Encoding: 51 51 16
Width: 600
Flags: HW
AnchorPoint: "grid_center" 300 250 mark 0
LayerCount: 2
Fore
SplineSet
140 250 m 0
 140 243 139 231 129 221 c 0
 119 211 107 210 100 210 c 0
 93 210 81 211 71 221 c 0
 61 231 60 243 60 250 c 0
 60 257 61 269 71 279 c 0
 81 289 93 290 100 290 c 0
 107 290 119 289 129 279 c 0
 139 269 140 257 140 250 c 0
EndSplineSet
Validated: 1
EndChar

StartChar: four
Encoding: 52 52 17
Width: 600
Flags: HW
AnchorPoint: "grid_center" 300 250 mark 0
LayerCount: 2
Fore
SplineSet
340 250 m 0
 340 243 339 231 329 221 c 0
 319 211 307 210 300 210 c 0
 293 210 281 211 271 221 c 0
 261 231 260 243 260 250 c 0
 260 257 261 269 271 279 c 0
 281 289 293 290 300 290 c 0
 307 290 319 289 329 279 c 0
 339 269 340 257 340 250 c 0
EndSplineSet
Validated: 1
EndChar

StartChar: five
Encoding: 53 53 18
Width: 600
Flags: HW
AnchorPoint: "grid_center" 300 250 mark 0
LayerCount: 2
Fore
SplineSet
540 250 m 0
 540 243 539 231 529 221 c 0
 519 211 507 210 500 210 c 0
 493 210 481 211 471 221 c 0
 461 231 460 243 460 250 c 0
 460 257 461 269 471 279 c 0
 481 289 493 290 500 290 c 0
 507 290 519 289 529 279 c 0
 539 269 540 257 540 250 c 0
EndSplineSet
Validated: 1
EndChar

StartChar: six
Encoding: 54 54 19
Width: 600
Flags: HW
AnchorPoint: "grid_center" 300 250 mark 0
LayerCount: 2
Fore
SplineSet
140 50 m 0
 140 43 139 31 129 21 c 0
 119 11 107 10 100 10 c 0
 93 10 81 11 71 21 c 0
 61 31 60 43 60 50 c 0
 60 57 61 69 71 79 c 0
 81 89 93 90 100 90 c 0
 107 90 119 89 129 79 c 0
 139 69 140 57 140 50 c 0
EndSplineSet
Validated: 1
EndChar

StartChar: seven
Encoding: 55 55 20
Width: 600
Flags: HW
AnchorPoint: "grid_center" 300 250 mark 0
LayerCount: 2
Fore
SplineSet
340 50 m 0
 340 43 339 31 329 21 c 0
 319 11 307 10 300 10 c 0
 293 10 281 11 271 21 c 0
 261 31 260 43 260 50 c 0
 260 57 261 69 271 79 c 0
 281 89 293 90 300 90 c 0
 307 90 319 89 329 79 c 0
 339 69 340 57 340 50 c 0
EndSplineSet
Validated: 1
EndChar

StartChar: eight
Encoding: 56 56 21
Width: 600
Flags: HW
AnchorPoint: "grid_center" 300 250 mark 0
LayerCount: 2
Fore
SplineSet
540 50 m 0
 540 43 539 31 529 21 c 0
 519 11 507 10 500 10 c 0
 493 10 481 11 471 21 c 0
 461 31 460 43 460 50 c 0
 460 57 461 69 471 79 c 0
 481 89 493 90 500 90 c 0
 507 90 519 89 529 79 c 0
 539 69 540 57 540 50 c 0
EndSplineSet
Validated: 1
EndChar

StartChar: a
Encoding: 97 97 22
Width: 600
Flags: HW
HStem: 400 100<50 350>
AnchorPoint: "grid_center" 300 250 mark 0
LayerCount: 2
Fore
SplineSet
100 413 m 2
 90 413 80 416 73 423 c 0
 58 438 58 462 73 477 c 0
 80 484 90 487 100 487 c 2
 300 487 l 2
 310 487 320 484 327 477 c 0
 342 462 342 438 327 423 c 0
 320 416 310 413 300 413 c 2
 100 413 l 2
EndSplineSet
Validated: 33
EndChar

StartChar: b
Encoding: 98 98 23
Width: 600
Flags: HW
HStem: 400 100<50 350>
AnchorPoint: "grid_center" 300 250 mark 0
LayerCount: 2
Fore
SplineSet
300 413 m 2
 290 413 280 416 273 423 c 0
 258 438 258 462 273 477 c 0
 280 484 290 487 300 487 c 2
 500 487 l 2
 510 487 520 484 527 477 c 0
 542 462 542 438 527 423 c 0
 520 416 510 413 500 413 c 2
 300 413 l 2
EndSplineSet
Validated: 33
EndChar

StartChar: c
Encoding: 99 99 24
Width: 600
Flags: HW
VStem: 50 100<200 500>
AnchorPoint: "grid_center" 300 250 mark 0
LayerCount: 2
Fore
SplineSet
63 450 m 2
 63 460 66 470 73 477 c 0
 88 492 112 492 127 477 c 0
 134 470 137 460 137 450 c 2
 137 250 l 2
 137 240 134 230 127 223 c 0
 112 208 88 208 73 223 c 0
 66 230 63 240 63 250 c 2
 63 450 l 2
EndSplineSet
Validated: 33
EndChar

StartChar: d
Encoding: 100 100 25
Width: 600
Flags: HW
VStem: 250 100<200 500>
AnchorPoint: "grid_center" 300 250 mark 0
LayerCount: 2
Fore
SplineSet
263 450 m 2
 263 460 266 470 273 477 c 0
 288 492 312 492 327 477 c 0
 334 470 337 460 337 450 c 2
 337 250 l 2
 337 240 334 230 327 223 c 0
 312 208 288 208 273 223 c 0
 266 230 263 240 263 250 c 2
 263 450 l 2
EndSplineSet
Validated: 33
EndChar

StartChar: e
Encoding: 101 101 26
Width: 600
Flags: HW
VStem: 450 100<200 500>
AnchorPoint: "grid_center" 300 250 mark 0
LayerCount: 2
Fore
SplineSet
463 450 m 2
 463 460 466 470 473 477 c 0
 488 492 512 492 527 477 c 0
 534 470 537 460 537 450 c 2
 537 250 l 2
 537 240 534 230 527 223 c 0
 512 208 488 208 473 223 c 0
 466 230 463 240 463 250 c 2
 463 450 l 2
EndSplineSet
Validated: 33
EndChar

StartChar: f
Encoding: 102 102 27
Width: 600
Flags: HW
HStem: 400 100<50 350>
AnchorPoint: "grid_center" 300 250 mark 0
LayerCount: 2
Fore
SplineSet
100 213 m 2
 90 213 80 216 73 223 c 0
 58 238 58 262 73 277 c 0
 80 284 90 287 100 287 c 2
 300 287 l 2
 310 287 320 284 327 277 c 0
 342 262 342 238 327 223 c 0
 320 216 310 213 300 213 c 2
 100 213 l 2
EndSplineSet
Validated: 33
EndChar

StartChar: g
Encoding: 103 103 28
Width: 600
Flags: HW
HStem: 400 100<50 350>
AnchorPoint: "grid_center" 300 250 mark 0
LayerCount: 2
Fore
SplineSet
300 213 m 2
 290 213 280 216 273 223 c 0
 258 238 258 262 273 277 c 0
 280 284 290 287 300 287 c 2
 500 287 l 2
 510 287 520 284 527 277 c 0
 542 262 542 238 527 223 c 0
 520 216 510 213 500 213 c 2
 300 213 l 2
EndSplineSet
Validated: 33
EndChar

StartChar: h
Encoding: 104 104 29
Width: 600
Flags: HW
HStem: 0 21G<50 150>
VStem: 50 100<0 300>
AnchorPoint: "grid_center" 300 250 mark 0
LayerCount: 2
Fore
SplineSet
63 250 m 2
 63 260 66 270 73 277 c 0
 88 292 112 292 127 277 c 0
 134 270 137 260 137 250 c 2
 137 50 l 2
 137 40 134 30 127 23 c 0
 112 8 88 8 73 23 c 0
 66 30 63 40 63 50 c 2
 63 250 l 2
EndSplineSet
Validated: 33
EndChar

StartChar: i
Encoding: 105 105 30
Width: 600
Flags: HW
HStem: 0 21G<250 350>
VStem: 250 100<0 300>
AnchorPoint: "grid_center" 300 250 mark 0
LayerCount: 2
Fore
SplineSet
263 250 m 2
 263 260 266 270 273 277 c 0
 288 292 312 292 327 277 c 0
 334 270 337 260 337 250 c 2
 337 50 l 2
 337 40 334 30 327 23 c 0
 312 8 288 8 273 23 c 0
 266 30 263 40 263 50 c 2
 263 250 l 2
EndSplineSet
Validated: 33
EndChar

StartChar: j
Encoding: 106 106 31
Width: 600
Flags: HW
HStem: 0 21G<450 550>
VStem: 450 100<0 300>
AnchorPoint: "grid_center" 300 250 mark 0
LayerCount: 2
Fore
SplineSet
463 250 m 2
 463 260 466 270 473 277 c 0
 488 292 512 292 527 277 c 0
 534 270 537 260 537 250 c 2
 537 50 l 2
 537 40 534 30 527 23 c 0
 512 8 488 8 473 23 c 0
 466 30 463 40 463 50 c 2
 463 250 l 2
EndSplineSet
Validated: 33
EndChar

StartChar: k
Encoding: 107 107 32
Width: 600
Flags: HW
HStem: 400 100<50 350>
AnchorPoint: "grid_center" 300 250 mark 0
LayerCount: 2
Fore
SplineSet
100 13 m 2
 90 13 80 16 73 23 c 0
 58 38 58 62 73 77 c 0
 80 84 90 87 100 87 c 2
 300 87 l 2
 310 87 320 84 327 77 c 0
 342 62 342 38 327 23 c 0
 320 16 310 13 300 13 c 2
 100 13 l 2
EndSplineSet
Validated: 33
EndChar

StartChar: l
Encoding: 108 108 33
Width: 600
Flags: HW
HStem: 400 100<50 350>
AnchorPoint: "grid_center" 300 250 mark 0
LayerCount: 2
Fore
SplineSet
300 13 m 2
 290 13 280 16 273 23 c 0
 258 38 258 62 273 77 c 0
 280 84 290 87 300 87 c 2
 500 87 l 2
 510 87 520 84 527 77 c 0
 542 62 542 38 527 23 c 0
 520 16 510 13 500 13 c 2
 300 13 l 2
EndSplineSet
Validated: 33
EndChar

StartChar: .notdef
Encoding: 256 -1 34
Width: 600
Flags: HW
HStem: 0 21G<50 150 250 350 450 550> 0 21G<50 150 250 350 450 550> 80 20G<50 150 250 350 450 550> 200 100<50 150 450 550> 400 100<50 150 250 350 450 550>
VStem: 50 100<0 100 200 300 400 500> 250 100<0 100 400 500> 450 100<0 100 200 300 400 500>
CounterMasks: 1 07
LayerCount: 2
Fore
SplineSet
140 450 m 0
 140 443 139 431 129 421 c 0
 119 411 107 410 100 410 c 0
 93 410 81 411 71 421 c 0
 61 431 60 443 60 450 c 0
 60 457 61 469 71 479 c 0
 81 489 93 490 100 490 c 0
 107 490 119 489 129 479 c 0
 139 469 140 457 140 450 c 0
340 450 m 0
 340 443 339 431 329 421 c 0
 319 411 307 410 300 410 c 0
 293 410 281 411 271 421 c 0
 261 431 260 443 260 450 c 0
 260 457 261 469 271 479 c 0
 281 489 293 490 300 490 c 0
 307 490 319 489 329 479 c 0
 339 469 340 457 340 450 c 0
540 450 m 0
 540 443 539 431 529 421 c 0
 519 411 507 410 500 410 c 0
 493 410 481 411 471 421 c 0
 461 431 460 443 460 450 c 0
 460 457 461 469 471 479 c 0
 481 489 493 490 500 490 c 0
 507 490 519 489 529 479 c 0
 539 469 540 457 540 450 c 0
140 250 m 0
 140 243 139 231 129 221 c 0
 119 211 107 210 100 210 c 0
 93 210 81 211 71 221 c 0
 61 231 60 243 60 250 c 0
 60 257 61 269 71 279 c 0
 81 289 93 290 100 290 c 0
 107 290 119 289 129 279 c 0
 139 269 140 257 140 250 c 0
540 250 m 0
 540 243 539 231 529 221 c 0
 519 211 507 210 500 210 c 0
 493 210 481 211 471 221 c 0
 461 231 460 243 460 250 c 0
 460 257 461 269 471 279 c 0
 481 289 493 290 500 290 c 0
 507 290 519 289 529 279 c 0
 539 269 540 257 540 250 c 0
140 50 m 0
 140 43 139 31 129 21 c 0
 119 11 107 10 100 10 c 0
 93 10 81 11 71 21 c 0
 61 31 60 43 60 50 c 0
 60 57 61 69 71 79 c 0
 81 89 93 90 100 90 c 0
 107 90 119 89 129 79 c 0
 139 69 140 57 140 50 c 0
340 50 m 0
 340 43 339 31 329 21 c 0
 319 11 307 10 300 10 c 0
 293 10 281 11 271 21 c 0
 261 31 260 43 260 50 c 0
 260 57 261 69 271 79 c 0
 281 89 293 90 300 90 c 0
 307 90 319 89 329 79 c 0
 339 69 340 57 340 50 c 0
540 50 m 0
 540 43 539 31 529 21 c 0
 519 11 507 10 500 10 c 0
 493 10 481 11 471 21 c 0
 461 31 460 43 460 50 c 0
 460 57 461 69 471 79 c 0
 481 89 493 90 500 90 c 0
 507 90 519 89 529 79 c 0
 539 69 540 57 540 50 c 0
EndSplineSet
Validated: 1
EndChar

StartChar: zero
Encoding: 48 48 35
Width: 600
Flags: HW
AnchorPoint: "grid_center" 300 250 mark 0
LayerCount: 2
Fore
SplineSet
140 450 m 0
 140 443 139 431 129 421 c 0
 119 411 107 410 100 410 c 0
 93 410 81 411 71 421 c 0
 61 431 60 443 60 450 c 0
 60 457 61 469 71 479 c 0
 81 489 93 490 100 490 c 0
 107 490 119 489 129 479 c 0
 139 469 140 457 140 450 c 0
EndSplineSet
Validated: 1
EndChar

StartChar: period
Encoding: 46 46 36
Width: 300
Flags: HW
LayerCount: 2
Fore
SplineSet
190 50 m 0
 190 43 189 31 179 21 c 0
 169 11 157 10 150 10 c 0
 143 10 131 11 121 21 c 0
 111 31 110 43 110 50 c 0
 110 57 111 69 121 79 c 0
 131 89 143 90 150 90 c 0
 157 90 169 89 179 79 c 0
 189 69 190 57 190 50 c 0
EndSplineSet
Validated: 1
EndChar

StartChar: periodcentered
Encoding: 183 183 37
Width: 300
Flags: HW
LayerCount: 2
Fore
SplineSet
190 250 m 0
 190 243 189 231 179 221 c 0
 169 211 157 210 150 210 c 0
 143 210 131 211 121 221 c 0
 111 231 110 243 110 250 c 0
 110 257 111 269 121 279 c 0
 131 289 143 290 150 290 c 0
 157 290 169 289 179 279 c 0
 189 269 190 257 190 250 c 0
EndSplineSet
Validated: 1
EndChar

StartChar: endash
Encoding: 150 8211 38
Width: 500
Flags: HW
HStem: 200 100<50 350>
LayerCount: 2
Fore
SplineSet
150 213 m 2
 140 213 130 216 123 223 c 0
 108 238 108 262 123 277 c 0
 130 284 140 287 150 287 c 2
 350 287 l 2
 360 287 370 284 377 277 c 0
 392 262 392 238 377 223 c 0
 370 216 360 213 350 213 c 2
 150 213 l 2
EndSplineSet
Validated: 33
EndChar

StartChar: emdash
Encoding: 151 8212 39
Width: 600
Flags: HW
HStem: 200 100<50 350>
LayerCount: 2
Fore
SplineSet
150 213 m 2
 140 213 130 216 123 223 c 0
 108 238 108 262 123 277 c 0
 130 284 140 287 150 287 c 2
 450 287 l 2
 460 287 470 284 477 277 c 0
 492 262 492 238 477 223 c 0
 470 216 460 213 450 213 c 2
 150 213 l 2
EndSplineSet
Validated: 33
EndChar

StartChar: quotesingle
Encoding: 39 39 40
Width: 200
Flags: HW
VStem: 50 100<200 500>
LayerCount: 2
Fore
SplineSet
63 550 m 2
 63 560 66 570 73 577 c 0
 88 592 112 592 127 577 c 0
 134 570 137 560 137 550 c 2
 137 350 l 2
 137 340 134 330 127 323 c 0
 112 308 88 308 73 323 c 0
 66 330 63 340 63 350 c 2
 63 550 l 2
EndSplineSet
Validated: 33
EndChar

StartChar: comma
Encoding: 44 44 41
Width: 300
Flags: HW
LayerCount: 2
Fore
SplineSet
113 50 m 2
 113 60 116 70 123 77 c 0
 138 92 162 92 177 77 c 0
 184 70 187 60 187 50 c 2
 187 -50 l 2
 187 -60 184 -70 177 -77 c 0
 162 -92 138 -92 123 -77 c 0
 116 -70 113 -60 113 -50 c 2
 113 50 l 2
EndSplineSet
Validated: 33
EndChar

StartChar: quoteleft
Encoding: 145 8216 42
Width: 200
Flags: HW
VStem: 50 100<200 500>
LayerCount: 2
Fore
SplineSet
63 550 m 2
 63 560 66 570 73 577 c 0
 88 592 112 592 127 577 c 0
 134 570 137 560 137 550 c 2
 137 350 l 2
 137 340 134 330 127 323 c 0
 112 308 88 308 73 323 c 0
 66 330 63 340 63 350 c 2
 63 550 l 2
EndSplineSet
Validated: 33
EndChar

StartChar: quoteright
Encoding: 146 8217 43
Width: 200
Flags: HW
VStem: 50 100<200 500>
LayerCount: 2
Fore
SplineSet
63 550 m 2
 63 560 66 570 73 577 c 0
 88 592 112 592 127 577 c 0
 134 570 137 560 137 550 c 2
 137 350 l 2
 137 340 134 330 127 323 c 0
 112 308 88 308 73 323 c 0
 66 330 63 340 63 350 c 2
 63 550 l 2
EndSplineSet
Validated: 33
EndChar

StartChar: bullet
Encoding: 149 8226 44
Width: 300
Flags: HW
LayerCount: 2
Fore
SplineSet
190 250 m 0
 190 243 189 231 179 221 c 0
 169 211 157 210 150 210 c 0
 143 210 131 211 121 221 c 0
 111 231 110 243 110 250 c 0
 110 257 111 269 121 279 c 0
 131 289 143 290 150 290 c 0
 157 290 169 289 179 279 c 0
 189 269 190 257 190 250 c 0
EndSplineSet
Validated: 1
EndChar

StartChar: bar
Encoding: 124 124 45
Width: 300
Flags: HW
VStem: 50 100<200 500>
LayerCount: 2
Fore
SplineSet
113 450 m 2
 113 460 116 470 123 477 c 0
 138 492 162 492 177 477 c 0
 184 470 187 460 187 450 c 2
 187 50 l 2
 187 40 184 30 177 23 c 0
 162 8 138 8 123 23 c 0
 116 30 113 40 113 50 c 2
 113 450 l 2
EndSplineSet
Validated: 33
EndChar

StartChar: degree
Encoding: 176 176 46
Width: 300
Flags: HW
LayerCount: 2
Fore
SplineSet
190 450 m 0
 190 443 189 431 179 421 c 0
 169 411 157 410 150 410 c 0
 143 410 131 411 121 421 c 0
 111 431 110 443 110 450 c 0
 110 457 111 469 121 479 c 0
 131 489 143 490 150 490 c 0
 157 490 169 489 179 479 c 0
 189 469 190 457 190 450 c 0
EndSplineSet
Validated: 1
EndChar

StartChar: hyphen
Encoding: 45 45 47
Width: 400
Flags: HW
HStem: 200 100<50 350>
LayerCount: 2
Fore
SplineSet
150 213 m 2
 140 213 130 216 123 223 c 0
 108 238 108 262 123 277 c 0
 130 284 140 287 150 287 c 2
 250 287 l 2
 260 287 270 284 277 277 c 0
 292 262 292 238 277 223 c 0
 270 216 260 213 250 213 c 2
 150 213 l 2
EndSplineSet
Validated: 33
EndChar

StartChar: colon
Encoding: 58 58 48
Width: 300
Flags: HW
LayerCount: 2
Fore
SplineSet
190 350 m 0
 190 343 189 331 179 321 c 0
 169 311 157 310 150 310 c 0
 143 310 131 311 121 321 c 0
 111 331 110 343 110 350 c 0
 110 357 111 369 121 379 c 0
 131 389 143 390 150 390 c 0
 157 390 169 389 179 379 c 0
 189 369 190 357 190 350 c 0
190 50 m 0
 190 43 189 31 179 21 c 0
 169 11 157 10 150 10 c 0
 143 10 131 11 121 21 c 0
 111 31 110 43 110 50 c 0
 110 57 111 69 121 79 c 0
 131 89 143 90 150 90 c 0
 157 90 169 89 179 79 c 0
 189 69 190 57 190 50 c 0
EndSplineSet
Validated: 1
EndChar

StartChar: semicolon
Encoding: 59 59 49
Width: 300
Flags: HW
LayerCount: 2
Fore
SplineSet
190 350 m 0
 190 343 189 331 179 321 c 0
 169 311 157 310 150 310 c 0
 143 310 131 311 121 321 c 0
 111 331 110 343 110 350 c 0
 110 357 111 369 121 379 c 0
 131 389 143 390 150 390 c 0
 157 390 169 389 179 379 c 0
 189 369 190 357 190 350 c 0
113 50 m 2
 113 60 116 70 123 77 c 0
 138 92 162 92 177 77 c 0
 184 70 187 60 187 50 c 2
 187 -50 l 2
 187 -60 184 -70 177 -77 c 0
 162 -92 138 -92 123 -77 c 0
 116 -70 113 -60 113 -50 c 2
 113 50 l 2
EndSplineSet
Validated: 33
EndChar

StartChar: quotedbl
Encoding: 34 34 51
Width: 400
Flags: HW
VStem: 50 100<200 500>
LayerCount: 2
Fore
SplineSet
63 550 m 2
 63 560 66 570 73 577 c 0
 88 592 112 592 127 577 c 0
 134 570 137 560 137 550 c 2
 137 350 l 2
 137 340 134 330 127 323 c 0
 112 308 88 308 73 323 c 0
 66 330 63 340 63 350 c 2
 63 550 l 2
263 550 m 2
 263 560 266 570 273 577 c 0
 288 592 312 592 327 577 c 0
 334 570 337 560 337 550 c 2
 337 350 l 2
 337 340 334 330 327 323 c 0
 312 308 288 308 273 323 c 0
 266 330 263 340 263 350 c 2
 263 550 l 2
EndSplineSet
Validated: 33
EndChar

StartChar: quotedblleft
Encoding: 147 8220 52
Width: 400
Flags: HW
VStem: 50 100<200 500>
LayerCount: 2
Fore
SplineSet
63 550 m 2
 63 560 66 570 73 577 c 0
 88 592 112 592 127 577 c 0
 134 570 137 560 137 550 c 2
 137 350 l 2
 137 340 134 330 127 323 c 0
 112 308 88 308 73 323 c 0
 66 330 63 340 63 350 c 2
 63 550 l 2
263 550 m 2
 263 560 266 570 273 577 c 0
 288 592 312 592 327 577 c 0
 334 570 337 560 337 550 c 2
 337 350 l 2
 337 340 334 330 327 323 c 0
 312 308 288 308 273 323 c 0
 266 330 263 340 263 350 c 2
 263 550 l 2
EndSplineSet
Validated: 33
EndChar

StartChar: quotedblright
Encoding: 148 8221 53
Width: 400
Flags: HW
VStem: 50 100<200 500>
LayerCount: 2
Fore
SplineSet
63 550 m 2
 63 560 66 570 73 577 c 0
 88 592 112 592 127 577 c 0
 134 570 137 560 137 550 c 2
 137 350 l 2
 137 340 134 330 127 323 c 0
 112 308 88 308 73 323 c 0
 66 330 63 340 63 350 c 2
 63 550 l 2
263 550 m 2
 263 560 266 570 273 577 c 0
 288 592 312 592 327 577 c 0
 334 570 337 560 337 550 c 2
 337 350 l 2
 337 340 334 330 327 323 c 0
 312 308 288 308 273 323 c 0
 266 330 263 340 263 350 c 2
 263 550 l 2
EndSplineSet
Validated: 33
EndChar

StartChar: ellipsis
Encoding: 133 8230 54
Width: 700
Flags: HW
LayerCount: 2
Fore
SplineSet
190 50 m 0
 190 43 189 31 179 21 c 0
 169 11 157 10 150 10 c 0
 143 10 131 11 121 21 c 0
 111 31 110 43 110 50 c 0
 110 57 111 69 121 79 c 0
 131 89 143 90 150 90 c 0
 157 90 169 89 179 79 c 0
 189 69 190 57 190 50 c 0
390 50 m 0
 390 43 389 31 379 21 c 0
 369 11 357 10 350 10 c 0
 343 10 331 11 321 21 c 0
 311 31 310 43 310 50 c 0
 310 57 311 69 321 79 c 0
 331 89 343 90 350 90 c 0
 357 90 369 89 379 79 c 0
 389 69 390 57 390 50 c 0
590 50 m 0
 590 43 589 31 579 21 c 0
 569 11 557 10 550 10 c 0
 543 10 531 11 521 21 c 0
 511 31 510 43 510 50 c 0
 510 57 511 69 521 79 c 0
 531 89 543 90 550 90 c 0
 557 90 569 89 579 79 c 0
 589 69 590 57 590 50 c 0
EndSplineSet
Validated: 1
EndChar
